# xmcd
#
# Track frame offsets: 
#        150
#        12062
#        23373
#        33473
#        45116
#        57481
#        67380
#        80107
#        88814
#        98159
#        111454
#        118320
#        128911
#
# Disc length: 1898 seconds
#
# Revision: 0
# Processed by: cddbd v1.5.2PL0 Copyright (c) Steve Scherf et al.
# Submitted via: ExactAudioCopy v1.0b1
#
DISCID=b007680d
DTITLE=Various Artist - Country Guys [disc 02]
DYEAR=2006
DGENRE=Country
TTITLE0=Don Gibson - I Can't Stop Loving You
TTITLE1=Conway Twitty - Hello Darlin'
TTITLE2=Merle Haggard - Mama Tried
TTITLE3=Roger Miiller - King of the Road
TTITLE4=Moe Bandy - San Antonio Rose
TTITLE5=Ernest Tubb - Walkin' the Floor Over You
TTITLE6=Tom T. Hall - The Year Clayton Delany Died
TTITLE7=Waylon Jennings - Love's Gonna Live here
TTITLE8=Moe Bandy - Tumblings Tumbleweeds
TTITLE9=Merle Haggard - Misery and Gin
TTITLE10=Waylon Jjennings - It's So Easy
TTITLE11=Freddy Fender - Crazy Baby
TTITLE12=Mel McDaniel - Baby's Got her Blue Jeans On
EXTD=
EXTT0=
EXTT1=
EXTT2=
EXTT3=
EXTT4=
EXTT5=
EXTT6=
EXTT7=
EXTT8=
EXTT9=
EXTT10=
EXTT11=
EXTT12=
PLAYORDER=
